HIERARCHY
ROOT Hips
{
	OFFSET 0.00000 0.00000 0.00000
	CHANNELS 6 Xposition Yposition Zposition Zrotation Yrotation Xrotation 
	JOINT LHipJoint
	{
		OFFSET 0 0 0
		CHANNELS 3 Zrotation Yrotation Xrotation
		JOINT LeftHip
		{
			OFFSET 1.80322 -1.53100 0.99595
			CHANNELS 3 Zrotation Yrotation Xrotation
			JOINT LeftKnee
			{
				OFFSET 2.25177 -6.18669 0.00000
				CHANNELS 3 Zrotation Yrotation Xrotation
				JOINT LeftAnkle
				{
					OFFSET 2.26601 -6.22582 0.00000
					CHANNELS 3 Zrotation Yrotation Xrotation
					JOINT LeftToe
					{
						OFFSET 0.23701 -0.65119 2.15848
						CHANNELS 3 Zrotation Yrotation Xrotation
						End Site
						{
							OFFSET 0.00000 -0.00000 1.12949
						}
					}
				}
			}
		}
	}
	JOINT RHipJoint
	{
		OFFSET 0 0 0
		CHANNELS 3 Zrotation Yrotation Xrotation
		JOINT RightHip
		{
			OFFSET -1.93977 -1.53100 0.99595
			CHANNELS 3 Zrotation Yrotation Xrotation
			JOINT RightKnee
			{
				OFFSET -2.28036 -6.26523 0.00000
				CHANNELS 3 Zrotation Yrotation Xrotation
				JOINT RightAnkle
				{
					OFFSET -2.25490 -6.19528 0.00000
					CHANNELS 3 Zrotation Yrotation Xrotation
					JOINT RightToe
					{
						OFFSET -0.28375 -0.77960 2.23137
						CHANNELS 3 Zrotation Yrotation Xrotation
						End Site
						{
							OFFSET -0.00000 -0.00000 1.17899
						}
					}
				}
			}
		}
	}
	JOINT lowerback
	{
		OFFSET 0 0 0
		CHANNELS 3 Zrotation Yrotation Xrotation
		JOINT Chest
		{
			OFFSET -0.00088 2.12090 -0.02806
			CHANNELS 3 Zrotation Yrotation Xrotation
			JOINT Chest2
			{
				OFFSET -0.00286 2.09666 0.12974
				CHANNELS 3 Zrotation Yrotation Xrotation
				JOINT lowerneck
				{
					OFFSET 0 0 0
					CHANNELS 3 Zrotation Yrotation Xrotation
					JOINT Neck
					{
						OFFSET 0.07328 1.83526 0.07290
						CHANNELS 3 Zrotation Yrotation Xrotation
						JOINT Head
						{
							OFFSET -0.06683 1.74974 -0.49542
							CHANNELS 3 Zrotation Yrotation Xrotation
							End Site
							{
								OFFSET -0.03398 1.85163 -0.17573
							}
						}
					}
				}
				JOINT LeftCollar
				{
					OFFSET 0 0 0
					CHANNELS 3 Zrotation Yrotation Xrotation
					JOINT LeftShoulder
					{
						OFFSET 3.02113 1.18018 0.40602
CHANNELS 3 Zrotation Xrotation Yrotation
						JOINT LeftElbow
						{
OFFSET 0 -4.585380 -0.000000
CHANNELS 3 Zrotation Xrotation Yrotation
							JOINT LeftWrist
							{
OFFSET 0 -2.689350 -0.000000
CHANNELS 3 Zrotation Xrotation Yrotation
								JOINT lhand
								{
									OFFSET 0 0 0
CHANNELS 3 Zrotation Xrotation Yrotation
									JOINT LFingers
									{
OFFSET 0 -0.585060 -0.000000
CHANNELS 3 Zrotation Xrotation Yrotation
										End Site
										{
OFFSET 0 -0.471690 -0.000000
										}
									}
								}
								JOINT LThumb
								{
OFFSET 0 0.000000 0.000000
CHANNELS 3 Zrotation Xrotation Yrotation
									End Site
									{
OFFSET 0 -0.478890 0.478890
									}
								}
							}
						}
					}
				}
				JOINT RightCollar
				{
					OFFSET 0 0 0
					CHANNELS 3 Zrotation Yrotation Xrotation
					JOINT RightShoulder
					{
						OFFSET -2.95074 1.18843 0.31430
CHANNELS 3 Zrotation Xrotation Yrotation
						JOINT RightElbow
						{
OFFSET 0 -4.474500 -0.000000
CHANNELS 3 Zrotation Xrotation Yrotation
							JOINT RightWrist
							{
OFFSET 0 -2.938960 -0.000000
CHANNELS 3 Zrotation Xrotation Yrotation
								JOINT rhand
								{
									OFFSET 0 0 0
CHANNELS 3 Zrotation Xrotation Yrotation
									JOINT RFingers
									{
OFFSET 0 -0.405090 -0.000000
CHANNELS 3 Zrotation Xrotation Yrotation
										End Site
										{
OFFSET 0 -0.326600 -0.000000
										}
									}
								}
								JOINT RThumb
								{
OFFSET 0 0.000000 0.000000
CHANNELS 3 Zrotation Xrotation Yrotation
									End Site
									{
OFFSET 0 -0.331580 0.331580
									}
								}
							}
						}
					}
				}
			}
		}
	}
}
MOTION
Frames: 6
Frame Time: 0.008333333333333333
-0.858600 14.970400 -4.072200 -3.433000 -20.480900 12.003600 0.000000 0.000000 0.000000 2.978500 -35.568900 -31.078400 4.575200 12.888800 38.953600 0.730100 25.564300 -39.619400 1.858500 8.565000 24.443800 0.000000 0.000000 0.000000 24.862400 8.329600 -9.264500 -3.482200 -11.437500 33.769800 -2.833000 -11.010000 -37.104100 -0.005700 -0.486900 1.337800 5.447600 -1.547900 -7.316500 1.711100 -2.341800 -6.946800 -1.369500 -1.386800 -3.268700 0.399600 -2.935500 -14.318100 -5.723600 -2.821800 31.621100 -2.731300 -2.069000 12.810900 -0.000000 0.000000 0.000000 10.826900 20.934900 -34.997800 139.316400 -48.469700 101.050600 -18.012800 12.275400 -11.599000 0.000000 0.000000 0.000000 -7.125000 0.000000 0.000000 -37.528600 38.594000 -7.178100 -0.000000 0.000000 0.000000 -18.360300 13.833700 43.879200 -135.263000 -50.639000 -97.964700 22.182700 2.646800 12.074000 0.000000 0.000000 0.000000 7.125000 0.000000 -0.000000 40.599900 38.489400 8.216500
-0.877033 14.968740 -4.080109 -3.539404 -20.651086 12.047310 0.000000 0.000000 0.000000 3.198701 -35.660807 -30.994886 4.588178 12.904533 39.012052 0.866037 25.389476 -40.055016 1.923024 8.703892 24.873436 0.000000 0.000000 0.000000 25.002015 8.285255 -9.311519 -3.477261 -11.430306 33.745105 -2.831905 -10.869767 -37.012031 -0.005735 -0.487892 1.340625 5.593066 -1.537687 -7.402155 1.686616 -2.341916 -6.951302 -1.478423 -1.393239 -3.234864 0.037157 -2.729055 -15.327943 -5.039468 -2.621471 33.819187 -2.497360 -1.950213 14.011646 0.000000 0.000000 0.000000 11.622291 18.906371 -34.070389 140.731180 -47.630518 102.102789 -16.924543 9.912997 -11.242097 0.000000 0.000000 0.000000 -7.125000 0.000000 0.000000 -36.596177 38.414230 -7.122986 0.000000 0.000000 0.000000 -18.241779 11.714185 42.334162 -136.765074 -49.873600 -99.119702 21.139778 0.515772 11.463737 0.000000 0.000000 0.000000 7.125000 0.000000 0.000000 39.607853 38.111667 8.384307
-0.895136 14.967010 -4.086448 -3.573655 -20.777964 12.035690 0.000000 0.000000 0.000000 3.261053 -35.481717 -30.943543 4.594939 12.912599 39.042136 0.917254 25.199881 -40.076599 1.946382 8.753504 25.027181 0.000000 0.000000 0.000000 25.080159 8.186201 -9.329744 -3.474361 -11.425971 33.730364 -2.835559 -10.744617 -36.953650 -0.005730 -0.488615 1.342646 5.683556 -1.535852 -7.494223 1.613250 -2.348397 -7.075217 -1.604432 -1.407371 -3.323402 0.021878 -2.218053 -16.359046 -4.377902 -2.108748 37.377519 -2.328541 -1.658432 15.977277 0.000000 0.000000 0.000000 12.942386 16.266920 -32.914656 142.039082 -46.814157 103.062846 -15.747857 6.972986 -10.421760 0.000000 0.000000 0.000000 -7.125000 0.000000 0.000000 -35.394764 37.843284 -7.400921 0.000000 0.000000 0.000000 -18.351395 9.253823 40.778740 -138.358315 -49.012770 -100.330242 19.485234 -2.601545 10.185214 0.000000 0.000000 0.000000 7.125000 0.000000 0.000000 37.897574 37.234046 8.879720
-0.912319 14.965710 -4.095865 -3.612955 -20.866298 11.902556 0.000000 0.000000 0.000000 3.130334 -34.635392 -30.952387 4.601591 12.920476 39.071634 0.798087 24.943574 -39.216832 1.885864 8.624200 24.626537 0.000000 0.000000 0.000000 25.192249 8.035003 -9.213158 -3.464776 -11.411954 33.682080 -2.829702 -10.673909 -36.880473 -0.005605 -0.482562 1.325899 5.750199 -1.575379 -7.581749 1.537976 -2.410426 -7.138769 -1.722923 -1.445674 -3.353840 0.902731 -1.207870 -16.134658 -4.227248 -0.969120 39.931947 -2.332134 -1.042448 17.316014 0.000000 0.000000 0.000000 14.909821 12.565849 -31.541259 143.179378 -46.069291 103.889237 -12.233090 5.193413 -9.176253 0.000000 0.000000 0.000000 -7.125000 0.000000 0.000000 -32.329809 37.117413 -7.225891 0.000000 0.000000 0.000000 -18.871664 5.769092 40.002515 -139.905808 -48.125592 -101.490586 12.155392 -4.252900 6.084493 0.000000 0.000000 0.000000 7.125000 0.000000 0.000000 31.139596 34.425190 9.279207
-0.926654 14.965939 -4.114807 -3.749611 -20.881042 11.708036 0.000000 0.000000 0.000000 2.901830 -32.690658 -31.274932 4.614614 12.936153 39.130012 0.439425 24.538102 -36.926954 1.697115 8.204209 23.336183 0.000000 0.000000 0.000000 25.435227 7.846752 -8.996094 -3.436059 -11.369528 33.536576 -2.798002 -10.695641 -36.731066 -0.005260 -0.469354 1.289543 5.864393 -1.592702 -7.610080 1.548415 -2.444418 -7.015944 -1.781496 -1.460940 -3.216614 2.975582 0.263023 -13.710512 -5.518565 1.155748 38.471579 -2.791987 -0.016151 16.034868 0.000000 0.000000 0.000000 17.349033 7.717165 -29.697430 144.427927 -45.215968 104.781882 -6.224174 4.650155 -7.370413 0.000000 0.000000 0.000000 -7.125000 0.000000 0.000000 -27.171970 36.025586 -6.617911 0.000000 0.000000 0.000000 -19.902889 0.970311 40.888028 -141.802710 -46.964141 -102.890124 -2.312184 -7.128812 1.931631 0.000000 0.000000 0.000000 7.125000 0.000000 0.000000 19.209395 31.498672 6.674923
-0.935796 14.971368 -4.150773 -3.923892 -20.795104 11.583090 0.000000 0.000000 0.000000 2.561222 -29.289824 -32.242889 4.619674 12.942274 39.152872 -0.060211 23.602352 -32.854582 1.386672 7.450311 21.056727 0.000000 0.000000 0.000000 25.736947 7.736570 -8.862096 -3.396601 -11.310939 33.335757 -2.745237 -10.825077 -36.539333 -0.005275 -0.470387 1.292508 6.114027 -1.528550 -7.412643 1.551284 -2.359637 -6.867979 -1.910731 -1.423371 -3.176680 5.612324 1.826029 -9.938690 -8.173283 3.756663 34.088052 -3.742881 1.198838 13.362112 0.000000 0.000000 0.000000 20.013024 2.714134 -27.705652 146.631415 -43.610523 106.324006 2.077663 2.897585 -7.001688 0.000000 0.000000 0.000000 -7.125000 0.000000 0.000000 -20.564026 36.262229 -4.668445 0.000000 0.000000 0.000000 -20.686044 -4.784484 42.662866 -144.631687 -45.072170 -104.926085 -15.574008 -12.645790 1.143982 0.000000 0.000000 0.000000 7.125000 0.000000 0.000000 8.747953 31.096510 3.005392
